<svg
        width="64"
        height="64"
        viewBox="0 0 64 64"
        fill="none"
        xmlns="http://www.w3.org/2000/svg"
>
    <!-- Background Circle -->
    <circle cx="32" cy="32" r="31" stroke="#4A148C" strokeWidth="2" fill="#f3e5f5"/>

    <!-- Cauldron -->
    <path
            d="M22 40 C22 35, 26 30, 32 30 C38 30, 42 35, 42 40 L22 40 Z"
            fill="#4A148C"
            stroke="#4A148C"
            strokeWidth="2"
    />
    <path
            d="M22 40 C22 45, 26 50, 32 50 C38 50, 42 45, 42 40"
            fill="#FFFFFF"
            stroke="#4A148C"
            strokeWidth="2"
    />
    <circle cx="26" cy="48" r="2" fill="#FFAB00"/>
    <circle cx="38" cy="48" r="2" fill="#FFAB00"/>

    <!-- Magical Steam -->
    <path
            d="M24 30 Q22 24, 24 18 Q26 20, 28 16 Q30 20, 32 16 Q34 20, 36 18 Q38 24, 36 30"
            fill="none"
            stroke="#FFAB00"
            strokeWidth="2"
            strokeLinecap="round"
    />
    <path
            d="M28 22 Q26 16, 28 10 Q30 12, 32 8 Q34 12, 36 10 Q38 16, 36 22"
            fill="none"
            stroke="#FFAB00"
            strokeWidth="2"
            strokeLinecap="round"
    />

    <!-- Magic Stars -->
    <circle cx="22" cy="18" r="2" fill="#FFAB00"/>
    <circle cx="42" cy="22" r="2" fill="#FFAB00"/>
    <circle cx="30" cy="10" r="2" fill="#FFAB00"/>
    <circle cx="34" cy="26" r="2" fill="#FFAB00"/>
    <circle cx="40" cy="15" r="2" fill="#FFAB00"/>
</svg>
